<?xml version="1.0" encoding="iso-8859-1"?>
<!-- Generator: Adobe Illustrator 17.0.0, SVG Export Plug-In . SVG Version: 6.00 Build 0)  -->
<!DOCTYPE svg PUBLIC "-//W3C//DTD SVG 1.1//EN" "http://www.w3.org/Graphics/SVG/1.1/DTD/svg11.dtd">
<svg version="1.1" id="Layer_1" xmlns="http://www.w3.org/2000/svg" xmlns:xlink="http://www.w3.org/1999/xlink" x="0px" y="0px"
	 width="48px" height="48px" viewBox="0 0 48 48" style="enable-background:new 0 0 48 48;" xml:space="preserve">
<g>
	<path style="fill:#FFFFFF;" d="M24,14c-5.522,0-10,4.477-10,10c0,5.523,4.477,10,10,10c5.523,0,10-4.477,10-10
		C34,18.477,29.523,14,24,14z M24.814,32.099v-4.494h-1.628v4.494c-3.845-0.382-6.902-3.44-7.284-7.285h4.494v-1.628h-4.494
		c0.382-3.845,3.439-6.903,7.284-7.284v4.494h1.628v-4.494c3.846,0.382,6.903,3.439,7.285,7.284h-4.494v1.628h4.494
		C31.717,28.659,28.66,31.717,24.814,32.099z"/>
</g>
</svg>
