<?xml version="1.0" encoding="iso-8859-1"?>
<!-- Generator: Adobe Illustrator 17.0.0, SVG Export Plug-In . SVG Version: 6.00 Build 0)  -->
<!DOCTYPE svg PUBLIC "-//W3C//DTD SVG 1.1//EN" "http://www.w3.org/Graphics/SVG/1.1/DTD/svg11.dtd">
<svg version="1.1" id="Layer_1" xmlns="http://www.w3.org/2000/svg" xmlns:xlink="http://www.w3.org/1999/xlink" x="0px" y="0px"
	 width="14px" height="14px" viewBox="0 0 14 14" style="enable-background:new 0 0 14 14;" xml:space="preserve">
<g>
	<path style="fill:#FFFFFF;" d="M11.125,5.267H9.855V4.278c0-2.045-0.942-3.247-2.824-3.247c-1.881,0-2.824,1.202-2.824,3.247v0.988
		H2.796c-0.39,0-0.706,0.457-0.706,0.847v5.506c0,0.388,0.302,0.803,0.672,0.923l0.845,0.272c0.369,0.119,0.989,0.217,1.378,0.217
		h4.094c0.388,0,1.008-0.097,1.378-0.217l0.845-0.272c0.369-0.119,0.672-0.534,0.672-0.923V6.114
		C11.972,5.724,11.515,5.267,11.125,5.267z M5.619,3.996c0-1.02,0.563-1.553,1.412-1.553s1.412,0.533,1.412,1.553v1.271H5.619V3.996
		z"/>
</g>
</svg>
