<?xml version="1.0" encoding="iso-8859-1"?>
<!-- Generator: Adobe Illustrator 17.0.0, SVG Export Plug-In . SVG Version: 6.00 Build 0)  -->
<!DOCTYPE svg PUBLIC "-//W3C//DTD SVG 1.1//EN" "http://www.w3.org/Graphics/SVG/1.1/DTD/svg11.dtd">
<svg version="1.1" id="Layer_1" xmlns="http://www.w3.org/2000/svg" xmlns:xlink="http://www.w3.org/1999/xlink" x="0px" y="0px"
	 width="14px" height="14px" viewBox="0 0 14 14" style="enable-background:new 0 0 14 14;" xml:space="preserve">
<g>
	<path style="fill:#FFFFFF;" d="M3.289,3.944c-0.701,0.699-3.767,5.072-1.118,7.719c2.647,2.649,7.019-0.417,7.72-1.118
		c0.701-0.699-0.209-2.747-2.032-4.57C6.036,4.151,3.99,3.241,3.289,3.944z M9.079,9.937c-0.207,0.205-1.809-0.286-3.353-1.829
		C4.184,6.564,3.692,4.962,3.899,4.755c0.205-0.207,1.809,0.286,3.351,1.829C8.793,8.126,9.285,9.73,9.079,9.937z M9.172,5.011
		c0.16,0,0.32-0.061,0.442-0.183l1.191-1.191c0.244-0.244,0.244-0.64,0-0.884c-0.244-0.244-0.64-0.244-0.884,0L8.73,3.944
		c-0.244,0.244-0.244,0.64,0,0.884C8.852,4.95,9.012,5.011,9.172,5.011z M6.922,3.465c0.097,0.054,0.201,0.08,0.305,0.08
		c0.219,0,0.431-0.115,0.546-0.32l0.676-1.206c0.169-0.301,0.061-0.682-0.24-0.851C7.908,1,7.527,1.107,7.358,1.409L6.682,2.615
		C6.514,2.916,6.621,3.297,6.922,3.465z M12.389,5.35c-0.169-0.301-0.55-0.408-0.851-0.24l-1.206,0.676
		c-0.301,0.169-0.409,0.55-0.24,0.851c0.115,0.205,0.327,0.32,0.546,0.32c0.104,0,0.208-0.026,0.305-0.08L12.15,6.2
		C12.451,6.031,12.558,5.651,12.389,5.35z"/>
</g>
</svg>
