<?xml version="1.0" encoding="iso-8859-1"?>
<!-- Generator: Adobe Illustrator 17.0.0, SVG Export Plug-In . SVG Version: 6.00 Build 0)  -->
<!DOCTYPE svg PUBLIC "-//W3C//DTD SVG 1.1//EN" "http://www.w3.org/Graphics/SVG/1.1/DTD/svg11.dtd">
<svg version="1.1" id="Layer_1" xmlns="http://www.w3.org/2000/svg" xmlns:xlink="http://www.w3.org/1999/xlink" x="0px" y="0px"
	 width="48px" height="48px" viewBox="0 0 48 48" style="enable-background:new 0 0 48 48;" xml:space="preserve">
<path style="fill:#FFFFFF;" d="M17.57,13.461c-0.016-0.132-0.234-0.132-0.25,0c-0.543,4.378-3.32,5.28-3.32,8.322
	c0,1.88,1.577,3.404,3.445,3.404c1.868,0,3.445-1.524,3.445-3.404C20.89,18.741,18.113,17.839,17.57,13.461z M30.681,13.461
	c-0.017-0.132-0.234-0.132-0.25,0c-0.543,4.378-3.319,5.28-3.319,8.322c0,1.88,1.577,3.404,3.445,3.404
	c1.868,0,3.444-1.524,3.444-3.404C34,18.741,31.224,17.839,30.681,13.461z M23.875,22.912c-0.543,4.378-3.32,5.28-3.32,8.322
	c0,1.88,1.577,3.404,3.445,3.404s3.445-1.524,3.445-3.404c0-3.043-2.776-3.944-3.319-8.322C24.108,22.78,23.892,22.78,23.875,22.912
	z"/>
</svg>
