<?xml version="1.0" encoding="iso-8859-1"?>
<!-- Generator: Adobe Illustrator 17.0.0, SVG Export Plug-In . SVG Version: 6.00 Build 0)  -->
<!DOCTYPE svg PUBLIC "-//W3C//DTD SVG 1.1//EN" "http://www.w3.org/Graphics/SVG/1.1/DTD/svg11.dtd">
<svg version="1.1" id="Layer_1" xmlns="http://www.w3.org/2000/svg" xmlns:xlink="http://www.w3.org/1999/xlink" x="0px" y="0px"
	 width="14px" height="14px" viewBox="0 0 14 14" style="enable-background:new 0 0 14 14;" xml:space="preserve">
<g>
	<path style="fill:#FFFFFF;" d="M6.791,3.843c-3.936,0-6,2.9-6,3.36c0,0.46,2.064,3.36,6,3.36c3.936,0,6-2.9,6-3.36
		C12.791,6.743,10.727,3.843,6.791,3.843z M6.791,9.788c-1.473,0-2.667-1.157-2.667-2.585s1.194-2.585,2.667-2.585
		s2.667,1.157,2.667,2.585S8.263,9.788,6.791,9.788z M6.791,7.203c-0.244-0.268,0.398-1.292,0-1.292
		c-0.736,0-1.333,0.579-1.333,1.292c0,0.714,0.597,1.292,1.333,1.292c0.736,0,1.333-0.579,1.333-1.292
		C8.124,6.875,6.998,7.431,6.791,7.203z"/>
</g>
</svg>
