<?xml version="1.0" encoding="iso-8859-1"?>
<!-- Generator: Adobe Illustrator 17.0.0, SVG Export Plug-In . SVG Version: 6.00 Build 0)  -->
<!DOCTYPE svg PUBLIC "-//W3C//DTD SVG 1.1//EN" "http://www.w3.org/Graphics/SVG/1.1/DTD/svg11.dtd">
<svg version="1.1" id="Layer_1" xmlns="http://www.w3.org/2000/svg" xmlns:xlink="http://www.w3.org/1999/xlink" x="0px" y="0px"
	 width="48px" height="48px" viewBox="0 0 48 48" style="enable-background:new 0 0 48 48;" xml:space="preserve">
<path style="fill:#FFFFFF;" d="M16.462,27.711c-1.577,1.55-0.245,3.141-2.341,5.501c-0.946,1.065,3.894,0.74,6.292-1.617
	c1.017-1,0.73-2.457-0.361-3.529C18.961,26.993,17.478,26.711,16.462,27.711z M33.938,14.269c-0.81-0.795-9.77,6.385-12.437,9.007
	c-1.324,1.301-1.766,1.999-2.172,2.521c-0.176,0.226,0.057,0.297,0.162,0.35c0.524,0.267,0.891,0.516,1.365,0.982
	c0.474,0.466,0.728,0.827,0.999,1.342c0.054,0.103,0.126,0.333,0.356,0.16c0.531-0.399,1.241-0.834,2.564-2.135
	C27.443,23.873,34.747,15.065,33.938,14.269z"/>
</svg>
