<?xml version="1.0" encoding="iso-8859-1"?>
<!-- Generator: Adobe Illustrator 17.0.0, SVG Export Plug-In . SVG Version: 6.00 Build 0)  -->
<!DOCTYPE svg PUBLIC "-//W3C//DTD SVG 1.1//EN" "http://www.w3.org/Graphics/SVG/1.1/DTD/svg11.dtd">
<svg version="1.1" id="Layer_1" xmlns="http://www.w3.org/2000/svg" xmlns:xlink="http://www.w3.org/1999/xlink" x="0px" y="0px"
	 width="48px" height="48px" viewBox="0 0 48 48" style="enable-background:new 0 0 48 48;" xml:space="preserve">
<path style="fill:#FFFFFF;" d="M33,23.2c-0.181,0-0.799,0-0.98,0c-0.552,0-1,0.358-1,0.8c0,0.442,0.448,0.8,1,0.8
	c0.181,0,0.799,0,0.98,0c0.552,0,1-0.358,1-0.8C34,23.558,33.552,23.2,33,23.2z M24,18.5c-3.05,0-5.5,2.45-5.5,5.5
	c0,3.05,2.45,5.5,5.5,5.5c3.05,0,5.5-2.45,5.5-5.5C29.5,20.95,27.05,18.5,24,18.5z M24,28c-2.21,0-4-1.79-4-4c0-2.21,1.79-4,4-4
	c2.21,0,4,1.79,4,4C28,26.21,26.21,28,24,28z M16.98,24c0-0.442-0.427-0.8-0.98-0.8c-0.184,0-0.816,0-1,0c-0.552,0-1,0.358-1,0.8
	c0,0.442,0.448,0.8,1,0.8c0.184,0,0.816,0,1,0C16.552,24.8,16.98,24.442,16.98,24z M24,17c0.442,0,0.8-0.448,0.8-1
	c0-0.183,0-0.817,0-1c0-0.552-0.358-1-0.8-1s-0.8,0.448-0.8,1c0,0.183,0,0.817,0,1C23.2,16.552,23.558,17,24,17z M24,31
	c-0.442,0-0.8,0.448-0.8,1c0,0.183,0,0.817,0,1c0,0.552,0.358,1,0.8,1s0.8-0.448,0.8-1c0-0.183,0-0.817,0-1
	C24.8,31.448,24.442,31,24,31z M31.366,17.766c0.391-0.39,0.454-0.961,0.141-1.273s-0.882-0.249-1.273,0.141
	c-0.108,0.108-0.592,0.592-0.7,0.7c-0.391,0.391-0.454,0.96-0.141,1.273c0.312,0.313,0.882,0.249,1.273-0.141
	C30.773,18.358,31.258,17.874,31.366,17.766z M17.334,29.534c-0.108,0.108-0.592,0.593-0.7,0.7c-0.39,0.39-0.454,0.96-0.141,1.273
	c0.312,0.312,0.882,0.249,1.273-0.141c0.108-0.107,0.593-0.592,0.7-0.7c0.391-0.39,0.454-0.961,0.141-1.273
	S17.724,29.144,17.334,29.534z M17.766,16.634c-0.391-0.39-0.961-0.454-1.273-0.141s-0.249,0.882,0.141,1.273
	c0.108,0.108,0.592,0.592,0.7,0.7c0.391,0.39,0.96,0.454,1.273,0.141s0.249-0.882-0.141-1.273
	C18.358,17.226,17.874,16.742,17.766,16.634z M29.534,30.666c0.108,0.108,0.593,0.592,0.7,0.7c0.39,0.39,0.96,0.454,1.273,0.141
	c0.312-0.312,0.249-0.882-0.141-1.273c-0.108-0.108-0.592-0.592-0.7-0.7c-0.39-0.39-0.961-0.454-1.273-0.141
	S29.144,30.276,29.534,30.666z"/>
</svg>
