<?xml version="1.0" encoding="iso-8859-1"?>
<!-- Generator: Adobe Illustrator 17.0.0, SVG Export Plug-In . SVG Version: 6.00 Build 0)  -->
<!DOCTYPE svg PUBLIC "-//W3C//DTD SVG 1.1//EN" "http://www.w3.org/Graphics/SVG/1.1/DTD/svg11.dtd">
<svg version="1.1" id="Layer_1" xmlns="http://www.w3.org/2000/svg" xmlns:xlink="http://www.w3.org/1999/xlink" x="0px" y="0px"
	 width="20px" height="20px" viewBox="0 0 20 20" style="enable-background:new 0 0 20 20;" xml:space="preserve">
<g>
	<path style="fill:#FFFFFF;" d="M17.501,4.516C14.335,2.41,10.778,1.682,6.56,2.891c-3.292,0.944-6.309,4.687-6.543,7.895
		c-0.276,3.79,2.676,7.036,7.876,7.031c5.606-0.006,7.705-2.698,7.751-3.516c0.046-0.818-2.187-2.331-0.75-3.886
		c1.801-1.949,3.404-0.288,4.375-0.522C20.242,9.66,20.734,6.667,17.501,4.516z M10.997,14.024c-0.848,0-1.535-0.685-1.535-1.531
		s0.687-1.531,1.535-1.531c0.848,0,1.535,0.685,1.535,1.531S11.845,14.024,10.997,14.024z"/>
</g>
</svg>
