<?xml version="1.0" encoding="utf-8"?>
<!-- Generator: Adobe Illustrator 17.1.0, SVG Export Plug-In . SVG Version: 6.00 Build 0)  -->
<!DOCTYPE svg PUBLIC "-//W3C//DTD SVG 1.1//EN" "http://www.w3.org/Graphics/SVG/1.1/DTD/svg11.dtd" [
	<!ENTITY ns_flows "http://ns.adobe.com/Flows/1.0/">
	<!ENTITY ns_extend "http://ns.adobe.com/Extensibility/1.0/">
	<!ENTITY ns_ai "http://ns.adobe.com/AdobeIllustrator/10.0/">
	<!ENTITY ns_graphs "http://ns.adobe.com/Graphs/1.0/">
]>
<svg version="1.1" id="Layer_1" xmlns:x="&ns_extend;" xmlns:i="&ns_ai;" xmlns:graph="&ns_graphs;"
	 xmlns="http://www.w3.org/2000/svg" xmlns:xlink="http://www.w3.org/1999/xlink" xmlns:a="http://ns.adobe.com/AdobeSVGViewerExtensions/3.0/"
	 x="0px" y="0px" viewBox="0 0 32 19" enable-background="new 0 0 32 19" xml:space="preserve">
<g>
	<path fill="#6C61D8" d="M6.031,14.242l-1.659,4.55C4.346,18.948,4.24,19,4.082,19H1.343c-0.185,0-0.237-0.104-0.185-0.26
		C2.66,14.684,5.109,8.08,6.848,3.529C6.927,3.321,7.032,3.035,7.084,2.1c0-0.13,0.079-0.182,0.185-0.182h3.687
		c0.105,0,0.158,0.026,0.211,0.13c2.054,5.512,4.188,11.232,6.294,16.719c0.052,0.156,0,0.234-0.158,0.234h-3.029
		c-0.132,0-0.184-0.052-0.237-0.156l-1.738-4.602H6.031z M11.562,11.694c-0.553-1.742-1.896-5.278-2.45-7.125H9.086
		c-0.421,1.716-1.527,4.732-2.344,7.125H11.562z"/>
	<path fill="#6C61D8" d="M23.123,12.89c-0.053,2.184,1.316,3.771,4.055,3.771c1.027,0,2.266-0.156,3.424-0.676
		c0.079-0.026,0.158,0,0.158,0.13v2.106c0,0.182-0.026,0.234-0.158,0.312c-1.054,0.494-2.317,0.728-4.108,0.728
		c-4.925,0-6.689-3.25-6.689-6.526c0-3.667,2.265-6.63,6.373-6.63c3.978,0,5.584,2.938,5.584,5.096c0,1.17-0.132,1.43-0.237,1.508
		c-0.343,0.156-1.29,0.182-2.792,0.182H23.123z M27.494,10.862c1.027,0,1.185-0.104,1.211-0.208c0-0.026,0-0.13,0-0.208
		c-0.026-0.52-0.553-2.08-2.686-2.08c-1.817,0-2.713,1.222-2.897,2.496H27.494z"/>
</g>
<g>
</g>
<g>
</g>
<g>
</g>
<g>
</g>
<g>
</g>
<g>
</g>
<g>
</g>
<g>
</g>
<g>
</g>
<g>
</g>
<g>
</g>
<g>
</g>
<g>
</g>
<g>
</g>
<g>
</g>
</svg>
